<?xml version="1.0" encoding="UTF-8" standalone="no"?><!DOCTYPE svg PUBLIC "-//W3C//DTD SVG 1.1//EN" "http://www.w3.org/Graphics/SVG/1.1/DTD/svg11.dtd"><svg width="100%" height="100%" viewBox="0 0 1051 800" version="1.1" xmlns="http://www.w3.org/2000/svg" xmlns:xlink="http://www.w3.org/1999/xlink" xml:space="preserve" style="fill-rule:evenodd;clip-rule:evenodd;stroke-linejoin:round;stroke-miterlimit:1.41421;"><path d="M224.903,622.906l-41.55,0l0,128.703l-16.975,0l0,-128.703l-41.297,0l0,-15.201l99.822,0l0,15.201Z" style="fill:#040d17;fill-rule:nonzero;"/><path d="M303.189,648.748l-47.377,119.329c-8.361,21.282 -20.268,31.923 -35.47,31.923c-4.307,0 -7.854,-0.507 -10.641,-1.267l0,-14.694c3.547,1.266 6.841,1.773 9.628,1.773c8.361,0 14.441,-5.067 18.748,-14.948l8.107,-19.508l-40.029,-102.608l18.241,0l27.869,79.046c0.253,1.014 1.013,3.547 2.027,7.854l0.506,0c0.254,-1.52 1.014,-4.053 2.027,-7.6l29.136,-79.3l17.228,0Zm26.855,87.914l-0.506,0l0,62.071l-16.468,0l0,-149.985l16.468,0l0,17.988l0.506,0c8.108,-13.681 20.015,-20.522 35.47,-20.522c13.174,0 23.562,4.561 30.909,13.682c7.347,9.12 11.148,21.535 11.148,36.989c0,17.228 -4.307,30.909 -12.668,41.297c-8.361,10.387 -19.762,15.454 -34.203,15.454c-12.921,0.507 -23.308,-5.32 -30.656,-16.974l0,0Zm-0.253,-41.297l0,14.441c0,8.614 2.787,15.708 8.361,21.535c5.573,5.827 12.414,8.868 21.028,8.868c9.881,0 17.735,-3.801 23.562,-11.401c5.574,-7.601 8.361,-18.242 8.361,-31.923c0,-11.401 -2.534,-20.522 -7.854,-26.855c-5.321,-6.588 -12.415,-9.628 -21.535,-9.628c-9.628,0 -17.228,3.294 -23.056,9.881c-6.08,6.587 -8.867,14.948 -8.867,25.082l0,0Zm178.614,8.867l-72.459,0c0.254,11.401 3.294,20.269 9.121,26.602c5.827,6.334 13.934,9.375 24.322,9.375c11.654,0 22.295,-3.801 31.922,-11.401l0,15.454c-9.12,6.587 -21.028,9.881 -35.722,9.881c-14.442,0 -25.843,-4.56 -34.203,-13.934c-8.361,-9.375 -12.415,-22.549 -12.415,-39.27c0,-15.961 4.561,-29.136 13.682,-39.017c9.12,-10.134 20.268,-15.201 33.696,-15.201c13.427,0 23.815,4.307 31.162,13.175c7.347,8.614 11.148,20.774 11.148,36.229l-0.254,8.107l0,0Zm-16.974,-13.934c0,-9.628 -2.281,-16.975 -6.841,-22.295c-4.56,-5.321 -10.894,-7.854 -18.748,-7.854c-7.854,0 -14.441,2.787 -19.762,8.361c-5.32,5.573 -8.867,12.921 -10.134,21.788l55.485,0Zm25.082,56.244l0,-11.4c10.387,6.587 20.775,9.88 31.415,9.88c11.148,0 19.762,-2.28 25.589,-7.094c5.827,-4.813 8.614,-11.147 8.614,-19.508c0,-7.347 -2.027,-13.174 -5.827,-17.735c-3.8,-4.307 -12.414,-10.387 -25.335,-17.988c-14.695,-8.614 -23.816,-15.708 -27.616,-21.281c-3.8,-5.828 -5.827,-12.415 -5.827,-19.762c0,-10.134 4.054,-18.748 11.908,-25.842c7.854,-7.094 18.494,-10.641 31.669,-10.641c8.614,0 17.228,1.52 25.589,4.307l0,10.388c-8.361,-3.801 -17.482,-5.827 -27.109,-5.827c-9.881,0 -17.482,2.533 -23.309,7.347c-5.827,5.067 -8.614,11.147 -8.614,18.748c0,7.347 2.027,13.174 5.827,17.481c3.801,4.307 12.415,10.388 25.336,17.735c13.427,7.601 22.295,14.441 26.855,20.268c4.56,5.827 6.587,12.668 6.587,20.522c0,11.148 -3.8,20.015 -11.401,27.109c-7.6,7.094 -18.494,10.387 -32.429,10.387c-5.067,0 -10.641,-0.76 -17.228,-2.28c-6.587,-1.52 -11.401,-2.787 -14.694,-4.814l0,0Zm161.386,0.507c-7.601,4.56 -16.722,7.094 -27.362,7.094c-13.935,0 -25.336,-4.814 -33.95,-14.441c-8.614,-9.628 -12.921,-22.042 -12.921,-37.75c0,-16.214 4.814,-29.642 14.441,-40.03c9.628,-10.387 22.042,-15.708 37.243,-15.708c7.854,0 15.455,1.521 22.802,4.814l0,10.388c-7.347,-4.561 -15.454,-6.841 -24.068,-6.841c-12.161,0 -21.789,4.307 -29.389,12.921c-7.601,8.614 -11.148,20.015 -11.148,33.696c0,13.428 3.547,24.069 10.387,32.176c6.841,8.107 15.962,12.161 27.109,12.161c10.388,0 19.255,-2.787 26.856,-8.107l0,9.627Zm61.311,-88.674c-3.04,-2.28 -6.587,-3.293 -10.894,-3.293c-8.107,0 -14.948,4.307 -20.268,12.667c-5.574,8.361 -8.107,20.269 -8.107,35.723l0,48.391l-9.121,0l0,-103.115l9.121,0l0,22.802l0.506,0c2.28,-7.854 6.081,-13.935 11.148,-18.242c5.067,-4.307 10.894,-6.587 17.735,-6.587c3.8,0 7.347,0.507 10.134,1.774l0,9.88l-0.254,0l0,0Zm14.695,-35.469c-2.027,0 -3.8,-0.76 -5.321,-2.28c-1.52,-1.52 -2.28,-3.294 -2.28,-5.574c0,-2.28 0.76,-4.054 2.28,-5.32c1.521,-1.267 3.294,-2.027 5.321,-2.027c2.027,0 3.8,0.76 5.574,2.027c1.52,1.266 2.28,3.04 2.28,5.32c0,2.027 -0.76,4.054 -2.28,5.574c-1.774,1.52 -3.547,2.28 -5.574,2.28Zm-4.561,128.703l0,-102.861l9.121,0l0,102.861l-9.121,0Zm40.79,-18.241l-0.506,0l0,65.619l-9.121,0l0,-150.239l9.121,0l0,21.282l0.506,0c3.801,-7.601 8.868,-13.428 15.708,-17.482c6.841,-4.053 14.441,-6.08 22.549,-6.08c13.174,0 23.308,4.56 30.656,13.428c7.347,9.12 10.894,21.281 10.894,36.736c0,17.228 -4.307,31.162 -12.668,41.803c-8.361,10.641 -19.508,15.961 -33.189,15.961c-15.201,-0.253 -26.602,-7.094 -33.95,-21.028Zm-0.506,-38.256l0,12.921c0,10.387 3.293,19.255 9.627,26.602c6.587,7.347 14.948,11.147 25.589,11.147c10.387,0 19.001,-4.56 25.589,-13.427c6.587,-9.121 9.88,-20.775 9.88,-35.47c0,-12.921 -3.04,-23.055 -9.12,-30.656c-6.081,-7.6 -13.935,-11.401 -24.069,-11.401c-11.908,0 -21.282,4.054 -27.869,12.161c-6.587,8.108 -9.627,17.228 -9.627,28.123Zm136.304,54.977c-4.814,2.281 -9.374,3.294 -13.428,3.294c-15.201,0 -22.802,-9.121 -22.802,-27.362l0,-68.659l-18.494,0l0,-8.361l18.494,0l0,-26.855l4.561,-1.52l4.56,-1.52l0,29.895l27.109,0l0,8.361l-27.109,0l0,67.899c0,7.094 1.013,12.161 3.294,15.454c2.28,3.294 6.08,4.814 11.401,4.814c3.8,0 7.854,-1.267 12.414,-3.8l0,8.36Z" style="fill:#040d17;fill-rule:nonzero;"/><path d="M813.516,0l237.497,134.336l0,268.734l-237.497,134.337l-237.497,-134.337l0,-268.734l237.497,-134.336Z" style="fill:#fff;fill-rule:nonzero;"/><path d="M1008.61,393.804l-187.236,105.922l0,-82.479l116.662,-64.192l70.574,40.749Zm12.827,-11.599l0,-221.48l-68.488,39.583l0,142.375l68.488,39.522Zm-403.746,11.599l187.236,105.922l0,-82.479l-116.723,-64.192l-70.513,40.749Zm-12.826,-11.599l0,-221.48l68.488,39.583l0,142.375l-68.488,39.522Zm8.039,-235.84l192.023,-108.623l0,79.718l-123.044,67.69l-0.982,0.552l-67.997,-39.337l0,0Zm400.493,0l-192.023,-108.623l0,79.718l123.045,67.628l0.982,0.553l67.996,-39.276Z" style="fill:#8ed6fb;fill-rule:nonzero;"/><path d="M804.924,398.468l-115.128,-63.333l0,-125.376l115.128,66.462l0,122.247Zm16.447,0l115.128,-63.272l0,-125.437l-115.128,66.462l0,122.247Zm-123.781,-203.192l115.558,-63.517l115.557,63.517l-115.557,66.707l-115.558,-66.707l0,0Z" style="fill:#1c78c0;fill-rule:nonzero;"/><path d="M250.163,0l-250.163,89.21l38.156,330.773l212.007,117.424l212.007,-117.424l38.156,-330.773l-250.163,-89.21Z" style="fill:#dd0031;fill-rule:nonzero;"/><path d="M250.163,0l0,59.652l0,-0.269l0,478.024l212.007,-117.424l38.156,-330.773l-250.163,-89.21Z" style="fill:#c3002f;fill-rule:nonzero;"/><path d="M250.163,59.383l-156.386,350.658l58.309,0l31.438,-78.461l132.74,0l31.438,78.461l58.309,0l-155.848,-350.658Zm45.679,223.83l-91.359,0l45.68,-109.899l45.679,109.899Z" style="fill:#fff;fill-rule:nonzero;"/></svg>