<?xml version="1.0" encoding="utf-8"?>
<!-- Generator: Adobe Illustrator 22.1.0, SVG Export Plug-In . SVG Version: 6.00 Build 0)  -->
<svg version="1.1" id="Layer_1" xmlns="http://www.w3.org/2000/svg" xmlns:xlink="http://www.w3.org/1999/xlink" x="0px" y="0px"
	 viewBox="0 0 608 372" style="enable-background:new 0 0 608 372;" xml:space="preserve">
<style type="text/css">
	.st0{fill:none;stroke:#000000;stroke-miterlimit:10;}
	.st1{fill:none;stroke:#000000;stroke-width:8;stroke-miterlimit:10;}
</style>
<polygon points="142.2,-0.2 9.2,153 70.2,229.9 15.2,351 145.3,221.8 98.9,132.7 "/>
<polygon points="590.7,191.7 533,258.2 559.4,291.5 535.6,344.1 592.1,288 571.9,249.3 "/>
<circle cx="427" cy="65" r="11"/>
<g>
	<path d="M427,90l0-7c3.2,0,6.3-0.8,9-2.4l3.5,6.1C435.7,88.8,431.4,90,427,90z M414.5,86.7c-3.8-2.2-7-5.3-9.2-9.1l6.1-3.5
		c1.6,2.7,3.9,5,6.6,6.6L414.5,86.7z M448.7,77.5l-6.1-3.5c1.6-2.7,2.4-5.8,2.4-8.9l0-0.1l7,0C452,69.4,450.8,73.7,448.7,77.5z
		 M402,65L402,65c0-4.4,1.1-8.7,3.3-12.5l6.1,3.5c-1.6,2.7-2.4,5.8-2.4,9L402,65z M442.6,55.9c-1.6-2.7-3.9-5-6.6-6.6l3.5-6.1
		c3.8,2.2,7,5.3,9.2,9.1L442.6,55.9z M418,49.4l-3.5-6c3.8-2.2,8.1-3.4,12.5-3.4l0,7C423.8,47,420.7,47.9,418,49.4z"/>
</g>
<circle cx="142" cy="314" r="16.9"/>
<g>
	<path d="M142,350.5c-2.1,0-4.2-0.2-6.3-0.5l1.2-6.9c3.4,0.6,6.9,0.6,10.2,0l1.2,6.9C146.3,350.3,144.1,350.5,142,350.5z
		 M123.8,345.6c-3.7-2.1-7-4.9-9.7-8.1l5.4-4.5c2.2,2.6,4.9,4.9,7.9,6.6L123.8,345.6z M160.3,345.6l-3.5-6.1c3-1.7,5.6-3.9,7.8-6.6
		l5.4,4.5C167.2,340.7,164,343.5,160.3,345.6z M107.7,326.5c-1.5-4-2.2-8.2-2.2-12.5l7,0c0,3.5,0.6,6.9,1.8,10.1L107.7,326.5z
		 M176.3,326.5l-6.6-2.4c1.2-3.2,1.8-6.6,1.8-10.1v-0.1h7v0.1C178.5,318.3,177.8,322.5,176.3,326.5z M114.2,304l-6.6-2.4
		c1.4-4,3.6-7.7,6.3-11l5.4,4.5C117.1,297.7,115.4,300.7,114.2,304z M169.7,303.8c-1.2-3.2-2.9-6.2-5.2-8.8l5.3-4.5
		c2.8,3.3,4.9,6.9,6.4,10.9L169.7,303.8z M127.2,288.5l-3.5-6.1c3.7-2.2,7.7-3.6,11.9-4.4l1.2,6.9
		C133.4,285.6,130.2,286.7,127.2,288.5z M156.7,288.4c-3-1.7-6.2-2.9-9.6-3.5l1.2-6.9c4.2,0.7,8.2,2.2,11.9,4.3L156.7,288.4z"/>
</g>
<polygon points="209.3,52.3 196,49.1 185.9,58.3 184.8,44.7 173,37.8 185.6,32.6 188.4,19.2 197.3,29.6 210.9,28.2 203.8,39.8 "/>
<polygon points="40.8,241 32.2,240.4 26.8,247.2 24.7,238.8 16.5,235.7 23.9,231.1 24.2,222.4 30.9,228 39.3,225.7 36,233.7 "/>
<polygon points="446.3,353 453.8,335.9 443.9,320 462.5,321.8 474.5,307.5 478.6,325.8 495.9,332.8 479.8,342.3 478.5,360.9 
	464.5,348.5 "/>
<polygon class="st0" points="435.9,360.9 446.6,336.4 432.4,313.7 459.1,316.3 476.3,295.8 482.1,321.9 506.8,332 483.8,345.5 
	481.9,372.2 461.9,354.5 "/>
<path d="M324.2,333.1c-1.2-0.4-2.3,0.4-3.4,0.2c-1.2-0.3-1.1-2.2-1.4-3.2c-0.5-2-1.6-3.6-2.7-5.3c-0.3-0.5,0.4-2.3,0.5-2.8
	c0.4-1.8,0.8-3.7,1.2-5.5c1.1-5,2.2-9.5-0.1-14.4c-1.8,5.9-3.5,11.8-5.3,17.7c-1-1.3-2-2.6-3-3.9l4.7-8.2l-52.8-30.5l-18,31.2
	l50.7,29.2l2.5-4.3l-46.3-26.8l13-22.5l44.2,25.5l-3.3,5.7l0.9,0.5c0.3,0.5,1,1.3,1.2,1.6c1.2,1.5,2.4,3,3.7,4.6
	c1.7,2,1.7,2,1.1,4.5c-0.3,1.2-0.4,4.4-1.2,5.3c-0.7,0.7-1.9-0.1-2.8-0.1c-1-0.1-1.9,0.2-2.7,0.8c-1.5,1.2-1.8,3.4-1.1,5.1
	c1.8,4.7,7.8,3.8,8-1.3c0.1-3-0.6-7.3,2.9-9c0.9-0.5,1.2-0.1,1.9,0.8c0.6,0.7,1.1,1.6,1.5,2.4c0.9,1.8,1,3.7,1.2,5.7
	c0.2,2.7,1.5,5.9,4.8,5.8c2.1-0.1,3.5-2.1,3.5-4.1C327.4,335.8,326.1,333.8,324.2,333.1z M310.4,336.7c-0.3,4.4-6.3,2.6-5.8-1.3
	C305.1,331.2,310.8,332.8,310.4,336.7z M323.2,340.6c-3-0.7-3.7-6.7,0.2-6.3C327,334.6,327.3,341.6,323.2,340.6z"/>
<rect x="276.5" y="52.5" transform="matrix(-0.9348 0.3551 -0.3551 -0.9348 613.3004 23.4288)" class="st1" width="56" height="31"/>
<path d="M600.4,137.7c-0.8-0.8-2.3-1.1-3.3-0.6c-0.7,0.3-0.8,1.1-1.4,1.5c-0.6,0.4-1.4-0.5-1.9-0.8c-1-0.7-2.2-0.9-3.4-1.1
	c-0.4-0.1-0.8-1.1-1-1.4c-0.6-1-1.2-1.9-1.8-2.9c-1.6-2.6-3-5-6.1-6.1c1.7,3.3,3.4,6.5,5.1,9.8c-1.1-0.2-2.1-0.3-3.2-0.5l-21.2-83.4
	l-57.2,14.5l25,98.4l55.7-14.2l-0.7-2.9l-52.8,13.4l-23.6-92.6l51.4-13.1l20.7,81.3l0.7-0.2c0,0.1,0.1,0.2,0.1,0.3
	c0.1,0.4,1,0.3,1.4,0.4c1.2,0.2,2.3,0.3,3.5,0.4c1.6,0.2,1.6,0.2,2.4,1.5c0.4,0.6,1.7,2.1,1.7,2.8c0,0.6-0.8,0.8-1.3,1.1
	c-0.4,0.4-0.7,0.9-0.8,1.5c-0.1,1.2,0.6,2.2,1.6,2.7c2.7,1.3,5-1.6,2.9-3.9c-1.2-1.3-3.3-2.9-2.5-5.1c0.2-0.6,0.5-0.5,1.2-0.5
	c0.6,0.1,1.1,0.2,1.7,0.4c1.1,0.4,2,1.2,2.9,1.9c1.2,1,3.1,1.9,4.5,0.5C601.6,140,601.3,138.5,600.4,137.7z M592.6,144.3
	c1.7,2-1.6,3.8-3.1,1.9C588.1,144.2,591.2,142.5,592.6,144.3z M599.8,140.7c-1.6,1-4.4-1.3-2.6-2.8
	C598.9,136.5,602,139.4,599.8,140.7z"/>
</svg>
